<svg width="188" height="151" viewBox="0 0 188 151" fill="none" xmlns="http://www.w3.org/2000/svg">
<path d="M53.6307 150.415C42.4091 150.367 32.821 147.408 24.8665 141.537C16.9119 135.666 10.8277 127.119 6.61364 115.898C2.39962 104.676 0.292614 91.1581 0.292614 75.3438C0.292614 59.5767 2.39962 46.1061 6.61364 34.9318C10.875 23.7576 16.983 15.2348 24.9375 9.36364C32.9394 3.49242 42.5038 0.556813 53.6307 0.556813C64.7576 0.556813 74.2983 3.51609 82.2528 9.43465C90.2074 15.3059 96.2917 23.8286 100.506 35.0028C104.767 46.1297 106.898 59.5767 106.898 75.3438C106.898 91.2055 104.791 104.747 100.577 115.969C96.3627 127.143 90.2784 135.689 82.3239 141.608C74.3693 147.479 64.8049 150.415 53.6307 150.415ZM53.6307 131.452C63.4792 131.452 71.1733 126.646 76.7131 117.034C82.3002 107.422 85.0938 93.5256 85.0938 75.3438C85.0938 63.2699 83.8153 53.0663 81.2585 44.733C78.7491 36.3523 75.1269 30.0076 70.392 25.6989C65.7045 21.3428 60.1174 19.1648 53.6307 19.1648C43.8295 19.1648 36.1354 23.9943 30.5483 33.6534C24.9612 43.3125 22.1439 57.2093 22.0966 75.3438C22.0966 87.465 23.3513 97.7159 25.8608 106.097C28.4176 114.43 32.0398 120.751 36.7273 125.06C41.4148 129.321 47.0492 131.452 53.6307 131.452ZM187.278 2.54545V148H165.261V24.5625H164.408L129.607 47.2898V26.267L165.9 2.54545H187.278Z" fill="#251D26"/>
<path d="M53.6307 150.415L53.6265 151.415H53.6307V150.415ZM6.61364 115.898L7.5498 115.546L6.61364 115.898ZM6.61364 34.9318L5.67927 34.5755L5.67796 34.579L6.61364 34.9318ZM24.9375 9.36364L24.3459 8.55738L24.3436 8.55906L24.9375 9.36364ZM82.2528 9.43465L81.6559 10.2369L81.659 10.2392L82.2528 9.43465ZM100.506 35.0028L99.57 35.3557L99.5718 35.3605L100.506 35.0028ZM100.577 115.969L101.512 116.322L101.513 116.32L100.577 115.969ZM82.3239 141.608L82.9177 142.413L82.9208 142.41L82.3239 141.608ZM76.7131 117.034L75.8485 116.532L75.8467 116.535L76.7131 117.034ZM81.2585 44.7329L80.3005 45.0198L80.3025 45.0263L81.2585 44.7329ZM70.3921 25.6989L69.7113 26.4314L69.719 26.4385L70.3921 25.6989ZM30.5483 33.6534L29.6827 33.1527L30.5483 33.6534ZM22.0966 75.3438L21.0966 75.3411V75.3438H22.0966ZM25.8608 106.097L24.9028 106.383L24.9048 106.39L25.8608 106.097ZM36.7273 125.06L36.0505 125.796L36.0546 125.8L36.7273 125.06ZM53.6349 149.415C42.5957 149.368 33.2215 146.461 25.4603 140.732L24.2726 142.342C32.4206 148.355 42.2225 151.367 53.6265 151.415L53.6349 149.415ZM25.4603 140.732C17.6915 134.998 11.7104 126.626 7.5498 115.546L5.67747 116.249C9.94486 127.613 16.1323 136.333 24.2726 142.342L25.4603 140.732ZM7.5498 115.546C3.38909 104.467 1.29261 91.0743 1.29261 75.3438H-0.707386C-0.707386 91.242 1.41016 104.886 5.67747 116.249L7.5498 115.546ZM1.29261 75.3438C1.29261 59.6608 3.38903 46.3164 7.54931 35.2847L5.67796 34.579C1.41021 45.8957 -0.707386 59.4926 -0.707386 75.3438H1.29261ZM7.548 35.2881C11.7555 24.255 17.7605 15.9038 25.5314 10.1682L24.3436 8.55906C16.2054 14.5659 9.99445 23.2601 5.67928 34.5755L7.548 35.2881ZM25.5291 10.1699C33.3389 4.43963 42.6896 1.55681 53.6307 1.55681V-0.443187C42.318 -0.443187 32.5399 2.54522 24.3459 8.55738L25.5291 10.1699ZM53.6307 1.55681C64.5701 1.55681 73.8948 4.46229 81.6559 10.2369L82.8498 8.63236C74.7018 2.56989 64.9451 -0.443187 53.6307 -0.443187V1.55681ZM81.659 10.2392C89.4288 15.9741 95.4097 24.324 99.57 35.3557L101.441 34.65C97.1736 23.3332 90.986 14.6376 82.8467 8.63008L81.659 10.2392ZM99.5718 35.3605C103.778 46.3429 105.898 59.6617 105.898 75.3438H107.898C107.898 59.4918 105.756 45.9166 101.44 34.6452L99.5718 35.3605ZM105.898 75.3438C105.898 91.122 103.801 104.538 99.6405 115.617L101.513 116.32C105.78 104.956 107.898 91.2889 107.898 75.3438H105.898ZM99.641 115.616C95.4806 126.648 89.499 135.023 81.7269 140.806L82.9208 142.41C91.0579 136.356 97.2448 127.638 101.512 116.322L99.641 115.616ZM81.73 140.803C73.9695 146.531 64.6203 149.415 53.6307 149.415V151.415C64.9896 151.415 74.7692 148.427 82.9177 142.413L81.73 140.803ZM53.6307 132.452C63.888 132.452 71.8884 127.408 77.5795 117.533L75.8467 116.535C70.4582 125.884 63.0703 130.452 53.6307 130.452V132.452ZM77.5776 117.537C83.293 107.704 86.0938 93.6018 86.0938 75.3438H84.0938C84.0938 93.4494 81.3073 107.141 75.8485 116.532L77.5776 117.537ZM86.0938 75.3438C86.0938 63.2057 84.8093 52.8967 82.2145 44.4396L80.3025 45.0263C82.8214 53.2359 84.0938 63.334 84.0938 75.3438H86.0938ZM82.2165 44.4461C79.6733 35.9528 75.9748 29.4271 71.0651 24.9593L69.719 26.4385C74.279 30.588 77.8248 36.7518 80.3006 45.0198L82.2165 44.4461ZM71.0728 24.9663C66.1975 20.4358 60.3661 18.1648 53.6307 18.1648V20.1648C59.8687 20.1648 65.2116 22.2498 69.7113 26.4314L71.0728 24.9663ZM53.6307 18.1648C43.417 18.1648 35.4188 23.236 29.6827 33.1527L31.4139 34.1541C36.852 24.7527 44.2421 20.1648 53.6307 20.1648V18.1648ZM29.6827 33.1527C23.9693 43.03 21.1441 57.1297 21.0966 75.3411L23.0966 75.3464C23.1437 57.2888 25.953 43.595 31.4139 34.1541L29.6827 33.1527ZM21.0966 75.3438C21.0966 87.5276 22.3571 97.8816 24.9028 106.383L26.8188 105.81C24.3456 97.5502 23.0966 87.4023 23.0966 75.3438H21.0966ZM24.9048 106.39C27.4953 114.833 31.1927 121.331 36.0505 125.796L37.404 124.323C32.8869 120.171 29.34 114.027 26.8168 105.803L24.9048 106.39ZM36.0546 125.8C40.9339 130.235 46.8111 132.452 53.6307 132.452V130.452C47.2874 130.452 41.8956 128.407 37.3999 124.32L36.0546 125.8ZM187.278 2.54545H188.278V1.54545H187.278V2.54545ZM187.278 148V149H188.278V148H187.278ZM165.261 148H164.261V149H165.261V148ZM165.261 24.5625H166.261V23.5625H165.261V24.5625ZM164.408 24.5625V23.5625H164.111L163.862 23.7252L164.408 24.5625ZM129.607 47.2898H128.607V49.1372L130.154 48.127L129.607 47.2898ZM129.607 26.267L129.06 25.43L128.607 25.726V26.267H129.607ZM165.9 2.54545V1.54545H165.602L165.353 1.70839L165.9 2.54545ZM186.278 2.54545V148H188.278V2.54545H186.278ZM187.278 147H165.261V149H187.278V147ZM166.261 148V24.5625H164.261V148H166.261ZM165.261 23.5625H164.408V25.5625H165.261V23.5625ZM163.862 23.7252L129.06 46.4525L130.154 48.127L164.955 25.3998L163.862 23.7252ZM130.607 47.2898V26.267H128.607V47.2898H130.607ZM130.154 27.1041L166.447 3.38251L165.353 1.70839L129.06 25.43L130.154 27.1041ZM165.9 3.54545H187.278V1.54545H165.9V3.54545Z" fill="url(#paint0_linear_26_11)" fill-opacity="0.46"/>
<defs>
<linearGradient id="paint0_linear_26_11" x1="101" y1="-2" x2="101" y2="153" gradientUnits="userSpaceOnUse">
<stop stop-color="white"/>
<stop offset="1" stop-opacity="0"/>
</linearGradient>
</defs>
</svg>
